<?xml version="1.0" encoding="utf-8"?>
<!-- Generator: Adobe Illustrator 26.4.1, SVG Export Plug-In . SVG Version: 6.00 Build 0)  -->
<svg version="1.1" id="Слой_1" xmlns="http://www.w3.org/2000/svg" xmlns:xlink="http://www.w3.org/1999/xlink" x="0px" y="0px"
	 viewBox="0 0 1900 289" style="enable-background:new 0 0 1900 289;" xml:space="preserve">
<style type="text/css">
	.st0{fill:#FFFFFF;}
</style>
<g>
	<path class="st0" d="M1310.94,288.45c12.93-24.18,25.36-47.41,38.25-71.51c-9.75,0-18.48,0-27.69,0c0-47.25,0-93.96,0-141.04
		c46.25,0,92.65,0,139.52,0c0,70.56,0,141.23,0,212.23c-14.71,0-29.43,0-44.58,0c0-23.11,0-46.04,0-69.72
		c-6.82,0-13.26-0.2-19.66,0.18c-1.2,0.07-2.62,2.25-3.35,3.74c-10.07,20.6-20.13,41.21-29.95,61.93c-1.52,3.2-3.22,4.32-6.73,4.27
		C1341.79,288.34,1326.82,288.45,1310.94,288.45z M1366.43,172.9c16.59,0,32.96,0,49.63,0c0-17.37,0-34.42,0-51.85
		c-16.59,0-32.97,0-49.63,0C1366.43,138.43,1366.43,155.49,1366.43,172.9z"/>
	<path class="st0" d="M254.8,75.81c46.95,0,93.37,0,140.07,0c0,70.82,0,141.37,0,212.28c-46.61,0-93.16,0-140.07,0
		C254.8,217.48,254.8,146.81,254.8,75.81z M299.62,243.51c16.27,0,31.91-0.03,47.55,0.03c3.47,0.01,3-2.34,3-4.46
		c0.01-37.97-0.04-75.95,0.09-113.92c0.01-3.85-1.32-4.78-4.92-4.73c-13.49,0.17-26.98,0.24-40.47-0.03
		c-4.41-0.09-5.64,1.17-5.61,5.6c0.17,37.31,0.1,74.62,0.11,111.93C299.36,239.54,299.51,241.16,299.62,243.51z"/>
	<path class="st0" d="M1052.35,288.24c0-71,0-141.46,0-212.31c46.69,0,93.24,0,140.13,0c0,14.64,0,29.22,0,44.59
		c-2.06,0-3.98,0-5.89,0c-28.16,0-56.33,0.07-84.49-0.08c-3.99-0.02-5.07,1.19-5.05,5.11c0.13,37.66,0.08,75.32,0.1,112.99
		c0,1.46,0.19,2.91,0.32,4.66c16.69,0,33.08,0,49.8,0c0-10.53,0-20.79,0-31.7c-6.21,0-12.44,0-18.93,0c0-13.23,0-25.82,0-38.73
		c21.37,0,42.62,0,64.18,0c0,38.47,0,76.87,0,115.48C1145.76,288.24,1099.32,288.24,1052.35,288.24z"/>
	<path class="st0" d="M1638.81,75.8c44.72,0,89.15,0,133.99,0c0,14.63,0,29.34,0,44.72c-1.92,0-3.86,0-5.79,0
		c-25.99,0-51.98,0.1-77.97-0.1c-4.5-0.04-5.68,1.37-5.56,5.71c0.29,10.61,0.09,21.24,0.09,32.36c30.07,0,59.48,0,89.26,0
		c0,43.39,0,86.28,0,129.57c-44.53,0-89.2,0-134.08,0c0-14.75,0-29.32,0-44.53c2.22,0,4.16,0,6.1,0c25.99,0,51.98-0.11,77.97,0.1
		c4.5,0.04,5.66-1.3,5.51-5.65c-0.32-9.49-0.33-19,0-28.48c0.16-4.55-1.13-5.99-5.8-5.95c-25.82,0.21-51.65,0.1-77.47,0.1
		c-1.97,0-3.94,0-6.25,0C1638.81,160.93,1638.81,118.69,1638.81,75.8z"/>
	<path class="st0" d="M228.3,158.41c0,43.73,0,86.52,0,129.68c-44.51,0-88.92,0-133.75,0c0-14.6,0-29.29,0-44.43
		c29.42,0,58.69,0,88.41,0c0-13.33,0-26.21,0-39.77c-29.28,0-58.67,0-88.44,0c0-43.04,0-85.4,0-128.07c44.57,0,88.96,0,133.69,0
		c0,14.81,0,29.39,0,44.61c-29.51,0-58.9,0-88.66,0c0,12.87,0,25.1,0,37.97C168.92,158.41,198.3,158.41,228.3,158.41z"/>
	<path class="st0" d="M766.03,159.45c0,15.25,0,29.71,0,44.96c-2.56,0-4.98,0-7.4,0c-11.5,0-23,0.18-34.5-0.1
		c-4.08-0.1-5.11,1.26-5.01,5.13c0.24,9.66,0.3,19.34-0.02,28.99c-0.15,4.37,1.48,5.19,5.45,5.17c27-0.16,54-0.08,81-0.08
		c1.82,0,3.65,0,5.94,0c0,14.96,0,29.65,0,44.64c-45.59,0-91.15,0-136.99,0c0-70.8,0-141.38,0-212.29c45.69,0,91.25,0,137.13,0
		c0,14.71,0,29.29,0,44.65c-2.01,0-3.93,0-5.85,0c-27,0-54,0.09-81-0.09c-4.27-0.03-5.87,0.92-5.69,5.5
		c0.36,9.49,0.28,19,0.03,28.49c-0.1,3.88,0.95,5.21,5.01,5.12c11.99-0.26,24-0.09,36-0.09
		C761.93,159.45,763.74,159.45,766.03,159.45z"/>
	<path class="st0" d="M512.13,75.79c15.12,0,29.4,0,44.46,0c-9.27,70.83-18.5,141.32-27.78,212.22c-29.62,0-59.17,0-89.54,0
		c-9.26-70.36-18.55-141.02-27.9-212.1c14.98,0,29.52,0,44.63,0c1.36,10.7,2.75,21.53,4.12,32.36c2.95,23.27,5.91,46.54,8.82,69.82
		c2.44,19.46,4.88,38.93,7.19,58.41c0.83,7,0.67,7.02,7.55,7.02c2.3,0,4.59,0,7.41,0C498.14,187.35,505.13,131.64,512.13,75.79z"/>
	<path class="st0" d="M1489.39,75.71c14.98,0,29.44,0,44.58,0c0,55.86,0,111.53,0,167.51c16.42,0,32.16,0,48.67,0
		c0-5.56,0-10.94,0-16.49c15.4,0,30.02,0,45.05,0c0,20.38,0,40.61,0,61.28c-45.84,0-91.86,0-138.31,0
		C1489.39,217.45,1489.39,146.79,1489.39,75.71z"/>
	<path class="st0" d="M917.28,288.3c-15.25,0-29.71,0-44.92,0c0-2.06,0-3.98,0-5.91c0-51.97-0.07-103.95,0.1-155.92
		c0.02-4.86-1.39-6.17-6.15-6.06c-13.97,0.3-27.96,0.11-42.38,0.11c0-15.01,0-29.69,0-44.68c47.2,0,94.27,0,141.77,0
		c0,14.67,0,29.36,0,44.68c-6.7,0-13.31,0-19.92,0c-7.66,0-15.34,0.25-22.98-0.1c-4.41-0.2-5.64,1.15-5.62,5.59
		c0.17,39.65,0.1,79.29,0.09,118.94C917.28,259.24,917.28,273.53,917.28,288.3z"/>
	<path class="st0" d="M570.67,75.79c27.1,0,54.01,0,81.22,0c0,14.77,0,29.35,0,44.74c-4.59,0-9.18,0.17-13.75-0.06
		c-3.29-0.16-4.33,1.06-4.32,4.3c0.08,38.15,0.08,76.31,0,114.46c-0.01,3.16,0.84,4.54,4.23,4.35c4.46-0.25,8.95-0.06,13.79-0.06
		c0,14.91,0,29.49,0,44.5c-26.85,0-53.88,0-81.21,0c0-14.56,0-29.15,0-44.34c5.69,0,11.42,0,17.59,0c0.14-2.17,0.33-3.76,0.33-5.36
		c0.02-37.49-0.07-74.98,0.13-112.46c0.02-4.63-1.51-5.76-5.73-5.41c-3.95,0.33-7.95,0.07-12.27,0.07
		C570.67,105.46,570.67,90.75,570.67,75.79z"/>
	<path class="st0" d="M1297.32,243.52c0,15.1,0,29.68,0,44.59c-26.97,0-53.85,0-81.03,0c0-14.81,0-29.38,0-44.57
		c5.97,0,11.71,0,17.77,0c0.12-2.2,0.29-3.82,0.29-5.44c0.01-37.32-0.08-74.65,0.13-111.97c0.03-4.81-1.53-6.07-5.96-5.7
		c-3.93,0.33-7.91,0.07-12.18,0.07c0-15.12,0-29.7,0-44.63c26.87,0,53.61,0,80.84,0c0,14.61,0,29.29,0,44.63
		c-4.66,0-9.28,0.12-13.88-0.04c-2.96-0.1-4.1,0.87-4.09,3.99c0.08,38.32,0.09,76.64-0.01,114.97c-0.01,3.44,1.31,4.28,4.42,4.14
		C1288.07,243.37,1292.53,243.52,1297.32,243.52z"/>
	<path class="st0" d="M1841.97-0.22c1.29,2.82,2.05,4.17,2.55,5.62c2.56,7.38,5.22,14.74,7.49,22.21c0.9,2.98,2.38,3.86,5.33,3.83
		c11.16-0.13,22.33-0.06,33.5-0.03c1.75,0,3.5,0.18,6.89,0.36c-2.38,2.15-3.52,3.4-4.86,4.35c-9.08,6.49-18.1,13.05-27.35,19.28
		c-2.79,1.88-3.11,3.66-2.09,6.55c3.54,10.02,6.94,20.09,10.33,30.15c0.52,1.55,0.74,3.21,1.1,4.82c-0.45,0.29-0.9,0.59-1.34,0.88
		c-10.61-8.11-21.22-16.22-32.22-24.63c-10.21,8.22-20.47,16.48-30.73,24.74c-0.42-0.3-0.84-0.6-1.26-0.9
		c0.36-1.65,0.58-3.35,1.11-4.95c3.29-9.94,6.49-19.92,10.08-29.75c1.17-3.19,0.4-4.75-2.21-6.54
		c-9.48-6.49-18.82-13.17-28.19-19.82c-1.24-0.88-2.31-1.99-3.46-2.99c0.15-0.41,0.29-0.83,0.44-1.24c1.71-0.11,3.43-0.31,5.14-0.32
		c11.33-0.03,22.67-0.18,33.99,0.08c3.75,0.09,5.26-1.31,6.27-4.71c2.07-7,4.53-13.89,6.88-20.81
		C1839.91,4.34,1840.68,2.8,1841.97-0.22z"/>
</g>
</svg>
